<?xml version="1.0" standalone="no"?>
<!DOCTYPE svg PUBLIC "-//W3C//DTD SVG 20010904//EN"
 "http://www.w3.org/TR/2001/REC-SVG-20010904/DTD/svg10.dtd">
<svg version="1.0" xmlns="http://www.w3.org/2000/svg"
 width="260.000000pt" height="260.000000pt" viewBox="0 0 260.000000 260.000000"
 preserveAspectRatio="xMidYMid meet">
<metadata>
Created by potrace 1.14, written by Peter Selinger 2001-2017
</metadata>
<g transform="translate(0.000000,260.000000) scale(0.100000,-0.100000)"
fill="#000000" stroke="none">
<path d="M220 2591 c-92 -28 -165 -97 -199 -185 -19 -49 -20 -85 -20 -1104 -1
-1013 0 -1054 18 -1103 27 -69 78 -129 142 -164 l54 -30 1080 0 1080 0 57 28
c67 33 121 93 149 167 18 49 19 84 17 1113 -3 992 -4 1065 -21 1101 -28 62
-80 119 -138 151 l-54 30 -1070 2 c-588 1 -1081 -2 -1095 -6z"/>
</g>
</svg>
